<svg xmlns="http://www.w3.org/2000/svg" width="800" height="500" viewBox="0 0 800 500" role="img" aria-label="Metro Backpack">
  <defs>
    <linearGradient id="bg" x1="0" y1="0" x2="1" y2="1">
      <stop offset="0" stop-color="#39d98a" stop-opacity=".18" />
      <stop offset="1" stop-color="#6ae4ff" stop-opacity=".22" />
    </linearGradient>
  </defs>
  <rect width="800" height="500" rx="36" fill="url(#bg)" />
  <g fill="none" stroke="#fff" stroke-opacity=".88" stroke-width="18" stroke-linecap="round" stroke-linejoin="round">
    <path d="M300 180c0-70 44-120 100-120s100 50 100 120" />
    <path d="M270 420V240c0-34 26-60 60-60h140c34 0 60 26 60 60v180" />
    <path d="M300 420h200" />
    <path d="M330 260h140" />
    <path d="M330 340h140" />
    <path d="M360 420v-54c0-18 14-32 32-32h16c18 0 32 14 32 32v54" />
  </g>
</svg>
