<svg xmlns="http://www.w3.org/2000/svg" width="800" height="500" viewBox="0 0 800 500" role="img" aria-label="AeroPods Pro">
  <defs>
    <linearGradient id="bg" x1="0" y1="0" x2="1" y2="1">
      <stop offset="0" stop-color="#6ae4ff" stop-opacity=".35" />
      <stop offset="1" stop-color="#7c5cff" stop-opacity=".35" />
    </linearGradient>
    <radialGradient id="glow" cx="30%" cy="30%" r="70%">
      <stop offset="0" stop-color="#ffffff" stop-opacity=".18" />
      <stop offset="1" stop-color="#ffffff" stop-opacity="0" />
    </radialGradient>
  </defs>
  <rect width="800" height="500" rx="36" fill="url(#bg)" />
  <rect width="800" height="500" rx="36" fill="url(#glow)" />
  <g fill="none" stroke="#fff" stroke-opacity=".88" stroke-width="18" stroke-linecap="round" stroke-linejoin="round">
    <path d="M280 250c0-46 18-72 54-72 38 0 56 26 56 72v10c0 34-20 58-56 58-34 0-54-24-54-58v-10Z" />
    <path d="M410 328v66c0 34-26 60-60 60" />
    <path d="M520 250c0-46 18-72 54-72 38 0 56 26 56 72v10c0 34-20 58-56 58-34 0-54-24-54-58v-10Z" />
    <path d="M650 328v66c0 34-26 60-60 60" />
  </g>
</svg>
